<svg width="146" height="42" viewBox="0 0 146 42" fill="none" xmlns="http://www.w3.org/2000/svg">
<g clip-path="url(#clip0_364_14)">
<path d="M9.54545 11.4546H0V30.5455H9.54545V11.4546Z" fill="#E26666"/>
<path d="M9.54545 32.4545H0V42H9.54545V32.4545Z" fill="#E26666"/>
<path d="M32.4546 11.4546H22.9091V30.5455H32.4546V11.4546Z" fill="#C4C4C4"/>
<path d="M21 11.4546H11.4545V30.5455H21V11.4546Z" fill="#E26666"/>
<path d="M32.4546 0H22.9091V9.54545H32.4546V0Z" fill="#C4C4C4"/>
<path d="M36.2727 11.7742H44.6992C46.7622 11.7742 48.4203 12.3837 49.6734 13.6028C50.9351 14.8218 51.5659 16.4543 51.5659 18.5002C51.5659 20.5204 50.9009 22.1401 49.571 23.3593C48.2414 24.5782 46.4938 25.1878 44.3285 25.1878H41.6943V30.2259H36.2727V11.7742ZM41.6943 15.8533V21.1854H43.2161C44.1282 21.1854 44.8357 20.9595 45.3386 20.5077C45.8416 20.0474 46.0931 19.3824 46.0931 18.5129C46.0931 17.652 45.8416 16.9956 45.3386 16.5438C44.8441 16.0834 44.1494 15.8533 43.2544 15.8533H41.6943Z" fill="#242424"/>
<path d="M58.9056 15.7765V20.4565H61.1434C61.9021 20.4565 62.4987 20.2434 62.9336 19.8171C63.3769 19.391 63.5985 18.8284 63.5985 18.1293C63.5985 17.4388 63.3725 16.8762 62.9208 16.4415C62.4689 15.9982 61.8807 15.7765 61.1562 15.7765H58.9056ZM58.9056 24.037V30.2259H53.4839V11.7742H61.6804C64.1184 11.7742 65.9683 12.3198 67.23 13.411C68.5001 14.5021 69.1352 16.0451 69.1352 18.0398C69.1352 19.1566 68.8708 20.1881 68.3424 21.1342C67.8224 22.0806 67.0935 22.7795 66.1557 23.2314L69.6595 30.2259H63.5985L60.6829 24.037H58.9056Z" fill="#242424"/>
<path d="M73.3933 14.0247C75.0641 12.3113 77.3273 11.4546 80.1832 11.4546C83.0388 11.4546 85.3022 12.3113 86.973 14.0247C88.6439 15.7382 89.4793 18.0654 89.4793 21.0063C89.4793 23.9475 88.6439 26.2746 86.973 27.9881C85.3022 29.6931 83.0388 30.5455 80.1832 30.5455C77.3188 30.5455 75.0513 29.6931 73.3805 27.9881C71.7181 26.2746 70.887 23.9475 70.887 21.0063C70.887 18.0654 71.7224 15.7382 73.3933 14.0247ZM82.9195 17.1959C82.2289 16.2497 81.3168 15.7766 80.1832 15.7766C79.0493 15.7766 78.1372 16.2497 77.4467 17.1959C76.7561 18.1421 76.411 19.4122 76.411 21.0063C76.411 22.592 76.7519 23.8579 77.4339 24.8041C78.1244 25.7504 79.0408 26.2235 80.1832 26.2235C81.3254 26.2235 82.2375 25.7504 82.9195 24.8041C83.61 23.8579 83.9553 22.592 83.9553 21.0063C83.9553 19.4122 83.61 18.1421 82.9195 17.1959Z" fill="#242424"/>
<path d="M93.693 30.2381H91.3884V11.7618H93.693V30.2381Z" fill="#C4C4C4"/>
<path d="M99.5573 30.2381H97.2781V11.7618H99.519L109.634 26.2689H109.749V11.7618H112.028V30.2381H109.788L99.6725 15.7823H99.5573V30.2381Z" fill="#C4C4C4"/>
<path d="M117.918 30.2381H115.614V11.7618H126.83V13.8361H117.918V20.1869H126.1V22.2356H117.918V30.2381Z" fill="#C4C4C4"/>
<path d="M131.043 14.0282C132.571 12.3124 134.645 11.4546 137.265 11.4546C139.886 11.4546 141.96 12.3124 143.488 14.0282C145.016 15.7439 145.78 18.07 145.78 21.0065C145.78 23.9429 145.016 26.2689 143.488 27.9846C141.96 29.6919 139.886 30.5455 137.265 30.5455C134.645 30.5455 132.571 29.6919 131.043 27.9846C129.515 26.2689 128.751 23.9429 128.751 21.0065C128.751 18.07 129.515 15.7439 131.043 14.0282ZM141.747 15.5903C140.646 14.2501 139.152 13.58 137.265 13.58C135.379 13.58 133.881 14.2501 132.771 15.5903C131.67 16.9219 131.119 18.7273 131.119 21.0065C131.119 23.277 131.67 25.0824 132.771 26.4226C133.881 27.7542 135.379 28.4201 137.265 28.4201C139.152 28.4201 140.646 27.7542 141.747 26.4226C142.856 25.0824 143.411 23.277 143.411 21.0065C143.411 18.7273 142.856 16.9219 141.747 15.5903Z" fill="#C4C4C4"/>
</g>
<defs>
<clipPath id="clip0_364_14">
<rect width="145.855" height="42" fill="white"/>
</clipPath>
</defs>
</svg>
