<svg width="146" height="42" viewBox="0 0 146 42" fill="none" xmlns="http://www.w3.org/2000/svg">
<g clip-path="url(#clip0_364_27)">
<path d="M9.55317 11.4545H0.00762939V30.5452H9.55317V11.4545Z" fill="#E26666"/>
<path d="M9.55317 32.4545H0.00762939V42H9.55317V32.4545Z" fill="#E26666"/>
<path d="M32.4621 11.4545H22.9166V30.5452H32.4621V11.4545Z" fill="#FEFEFE"/>
<path d="M21.0076 11.4545H11.4621V30.5452H21.0076V11.4545Z" fill="#E26666"/>
<path d="M32.4621 0H22.9166V9.54554H32.4621V0Z" fill="#FEFEFE"/>
<path d="M36.2802 11.7742H44.7067C46.7697 11.7742 48.4279 12.3838 49.6812 13.6029C50.9427 14.8217 51.5736 16.4542 51.5736 18.5001C51.5736 20.5204 50.9085 22.1401 49.5786 23.3592C48.2491 24.5781 46.5015 25.1876 44.336 25.1876H41.7019V30.2258H36.2802V11.7742ZM41.7019 15.8532V21.1855H43.2237C44.1359 21.1855 44.8434 20.9594 45.3462 20.5076C45.8493 20.0472 46.1007 19.3824 46.1007 18.5129C46.1007 17.652 45.8493 16.9954 45.3462 16.5436C44.8516 16.0835 44.157 15.8532 43.2621 15.8532H41.7019Z" fill="#FEFEFE"/>
<path d="M58.9131 15.7766V20.4563H61.1509C61.9096 20.4563 62.5064 20.2434 62.9411 19.8172C63.3844 19.391 63.6059 18.8284 63.6059 18.1295C63.6059 17.4387 63.3802 16.8762 62.9283 16.4414C62.4765 15.9981 61.8883 15.7766 61.1637 15.7766H58.9131ZM58.9131 24.0368V30.2258H53.4914V11.7742H61.6881C64.1261 11.7742 65.9758 12.3197 67.2377 13.411C68.5077 14.502 69.1429 16.0451 69.1429 18.0398C69.1429 19.1567 68.8784 20.1882 68.35 21.1342C67.8298 22.0806 67.101 22.7796 66.1632 23.2314L69.6671 30.2258H63.6059L60.6905 24.0368H58.9131Z" fill="#FEFEFE"/>
<path d="M73.4007 14.0248C75.0716 12.3115 77.3348 11.4545 80.1907 11.4545C83.0463 11.4545 85.3097 12.3115 86.9807 14.0248C88.6513 15.7382 89.4867 18.0654 89.4867 21.0064C89.4867 23.9474 88.6513 26.2746 86.9807 27.988C85.3097 29.6931 83.0463 30.5455 80.1907 30.5455C77.3262 30.5455 75.0588 29.6931 73.3882 27.988C71.7255 26.2746 70.8947 23.9474 70.8947 21.0064C70.8947 18.0654 71.73 15.7382 73.4007 14.0248ZM82.927 17.1959C82.2366 16.2495 81.3244 15.7766 80.1907 15.7766C79.057 15.7766 78.1448 16.2495 77.4544 17.1959C76.7637 18.142 76.4186 19.4123 76.4186 21.0064C76.4186 22.5919 76.7597 23.8577 77.4416 24.8041C78.132 25.7502 79.0484 26.2234 80.1907 26.2234C81.3329 26.2234 82.2451 25.7502 82.927 24.8041C83.6174 23.8577 83.9628 22.5919 83.9628 21.0064C83.9628 19.4123 83.6174 18.142 82.927 17.1959Z" fill="#FEFEFE"/>
<path d="M93.7005 30.238H91.3959V11.7617H93.7005V30.238Z" fill="#FEFEFE"/>
<path d="M99.5649 30.238H97.2856V11.7617H99.5265L109.642 26.2688H109.757V11.7617H112.036V30.238H109.795L99.6799 15.7824H99.5649V30.238Z" fill="#FEFEFE"/>
<path d="M117.926 30.238H115.621V11.7617H126.837V13.8363H117.926V20.187H126.108V22.2356H117.926V30.238Z" fill="#FEFEFE"/>
<path d="M131.05 14.0282C132.578 12.3124 134.652 11.4545 137.273 11.4545C139.893 11.4545 141.968 12.3124 143.496 14.0282C145.024 15.744 145.788 18.07 145.788 21.0064C145.788 23.9429 145.024 26.2688 143.496 27.9846C141.968 29.6919 139.893 30.5455 137.273 30.5455C134.652 30.5455 132.578 29.6919 131.05 27.9846C129.522 26.2688 128.758 23.9429 128.758 21.0064C128.758 18.07 129.522 15.744 131.05 14.0282ZM141.754 15.5902C140.653 14.25 139.159 13.58 137.273 13.58C135.387 13.58 133.888 14.25 132.779 15.5902C131.677 16.9219 131.127 18.7274 131.127 21.0064C131.127 23.2769 131.677 25.0824 132.779 26.4226C133.888 27.754 135.387 28.42 137.273 28.42C139.159 28.42 140.653 27.754 141.754 26.4226C142.864 25.0824 143.419 23.2769 143.419 21.0064C143.419 18.7274 142.864 16.9219 141.754 15.5902Z" fill="#FEFEFE"/>
</g>
<defs>
<clipPath id="clip0_364_27">
<rect width="145.795" height="42" fill="white"/>
</clipPath>
</defs>
</svg>
